<svg width="400" height="400" viewBox="0 0 400 400" fill="none" xmlns="http://www.w3.org/2000/svg">
<circle cx="150" cy="200" r="150" fill="#00C2FF"/>
<circle cx="250" cy="200" r="150" fill="#FFF500"/>
<path fill-rule="evenodd" clip-rule="evenodd" d="M200 341.929C258.26 321.338 300 265.776 300 200.465C300 135.154 258.26 79.5918 200 59C141.74 79.5918 100 135.154 100 200.465C100 265.776 141.74 321.338 200 341.929Z" fill="#FF9E45"/>
<path d="M200 80C266.667 88 266.667 96 200 104C133.333 112 133.333 120 200 128C266.667 136 266.667 144 200 152C133.333 160 133.333 168 200 176C266.667 184 266.667 192 200 200C133.333 208 133.333 216 200 224C266.667 232 266.667 240 200 248C133.333 256 133.333 264 200 272C266.667 280 266.667 288 200 296C133.333 304 133.333 312 200 320" stroke="white" stroke-width="15"/>
</svg>
