<svg width="18" height="18" viewBox="0 0 18 18" fill="none" xmlns="http://www.w3.org/2000/svg">
<path d="M3.86764 4.40501C3.32839 4.1317 2.83339 4.1317 2.29413 4.40501L1.5 2.79504C2.53917 2.26835 3.6226 2.26835 4.66178 2.79504C5.20103 3.06835 5.69603 3.06835 6.23529 2.79504C7.27446 2.26835 8.35789 2.26835 9.39707 2.79504C9.93632 3.06835 10.4313 3.06835 10.9706 2.79504C12.0098 2.26835 13.0932 2.26835 14.1324 2.79504C14.6716 3.06835 15.1666 3.06835 15.7059 2.79504L16.5 4.40501C15.4608 4.9317 14.3774 4.9317 13.3382 4.40501C12.799 4.1317 12.304 4.1317 11.7647 4.40501C10.7255 4.9317 9.64211 4.9317 8.60293 4.40501C8.06368 4.1317 7.56868 4.1317 7.02942 4.40501C5.99025 4.9317 4.90682 4.9317 3.86764 4.40501Z" fill="white"/>
<path d="M3.86764 8.00501C3.32839 7.7317 2.83339 7.7317 2.29413 8.00501L1.5 6.39504C2.53917 5.86835 3.6226 5.86835 4.66178 6.39504C5.20103 6.66835 5.69603 6.66835 6.23529 6.39504C7.27446 5.86835 8.35789 5.86835 9.39707 6.39504C9.93632 6.66835 10.4313 6.66835 10.9706 6.39504C12.0098 5.86835 13.0932 5.86835 14.1324 6.39504C14.6716 6.66835 15.1666 6.66835 15.7059 6.39504L16.5 8.00501C15.4608 8.5317 14.3774 8.5317 13.3382 8.00501C12.799 7.7317 12.304 7.7317 11.7647 8.00501C10.7255 8.5317 9.64211 8.5317 8.60293 8.00501C8.06368 7.7317 7.56868 7.7317 7.02942 8.00501C5.99025 8.5317 4.90682 8.5317 3.86764 8.00501Z" fill="white"/>
<path d="M2.29413 11.605C2.83339 11.3317 3.32839 11.3317 3.86764 11.605C4.90682 12.1317 5.99025 12.1317 7.02942 11.605C7.56868 11.3317 8.06368 11.3317 8.60293 11.605C9.64211 12.1317 10.7255 12.1317 11.7647 11.605C12.304 11.3317 12.799 11.3317 13.3382 11.605C14.3774 12.1317 15.4608 12.1317 16.5 11.605L15.7059 9.99504C15.1666 10.2684 14.6716 10.2684 14.1324 9.99504C13.0932 9.46835 12.0098 9.46835 10.9706 9.99504C10.4313 10.2684 9.93632 10.2684 9.39707 9.99504C8.35789 9.46835 7.27446 9.46835 6.23529 9.99504C5.69603 10.2684 5.20103 10.2684 4.66178 9.99504C3.6226 9.46835 2.53917 9.46835 1.5 9.99504L2.29413 11.605Z" fill="white"/>
<path d="M3.86764 15.205C3.32839 14.9317 2.83339 14.9317 2.29413 15.205L1.5 13.595C2.53917 13.0684 3.6226 13.0684 4.66178 13.595C5.20103 13.8684 5.69603 13.8684 6.23529 13.595C7.27446 13.0684 8.35789 13.0684 9.39707 13.595L8.60293 15.205C8.06368 14.9317 7.56868 14.9317 7.02942 15.205C5.99025 15.7317 4.90682 15.7317 3.86764 15.205Z" fill="white"/>
<path d="M11.7647 15.205C12.304 14.9317 12.799 14.9317 13.3382 15.205C14.3774 15.7317 15.4608 15.7317 16.5 15.205L15.7059 13.595C15.1666 13.8684 14.6716 13.8684 14.1324 13.595C13.0932 13.0684 12.0098 13.0684 10.9706 13.595L11.7647 15.205Z" fill="white"/>
</svg>
